M48
;GenerationSoftware,Autodesk,EAGLE,9.6.0*%
;CreationDate,2020-05-29T22:24:00Z*%
FMAT,2
ICI,OFF
METRIC,TZ,000.000
T2C0.381
T1C1.800
%
G90
M71
T1
X91948Y148844
X5080Y5080
X5080Y2540
X19558Y5080
X19558Y2540
X34036Y5080
X34036Y2540
X48514Y5080
X48514Y2540
X62992Y5080
X62992Y2540
X77470Y5080
X77470Y2540
X91948Y5080
X91948Y2540
X5080Y23368
X5080Y20828
X19558Y23368
X19558Y20828
X34036Y23368
X34036Y20828
X48514Y23368
X48514Y20828
X62992Y23368
X62992Y20828
X77470Y23368
X77470Y20828
X91948Y23368
X91948Y20828
X5080Y41656
X5080Y39116
X19558Y41656
X19558Y39116
X34036Y41656
X34036Y39116
X48514Y41656
X48514Y39116
X62992Y41656
X62992Y39116
X77470Y41656
X77470Y39116
X91948Y41656
X91948Y39116
X5080Y59944
X5080Y57404
X19558Y59944
X19558Y57404
X34036Y59944
X34036Y57404
X48514Y59944
X48514Y57404
X62992Y59944
X62992Y57404
X77470Y59944
X77470Y57404
X91948Y59944
X91948Y57404
X5080Y78232
X5080Y75692
X19558Y78232
X19558Y75692
X34036Y78232
X34036Y75692
X48514Y78232
X48514Y75692
X62992Y78232
X62992Y75692
X77470Y78232
X77470Y75692
X91948Y78232
X91948Y75692
X5080Y96520
X5080Y93980
X19558Y96520
X19558Y93980
X34036Y96520
X34036Y93980
X48514Y96520
X48514Y93980
X62992Y96520
X62992Y93980
X77470Y96520
X77470Y93980
X91948Y96520
X91948Y93980
X5080Y114808
X5080Y112268
X19558Y114808
X19558Y112268
X34036Y114808
X34036Y112268
X48514Y114808
X48514Y112268
X62992Y114808
X62992Y112268
X77470Y114808
X77470Y112268
X91948Y114808
X91948Y112268
X5080Y133096
X5080Y130556
X19558Y133096
X19558Y130556
X34036Y133096
X34036Y130556
X48514Y133096
X48514Y130556
X62992Y133096
X62992Y130556
X77470Y133096
X77470Y130556
X91948Y133096
X91948Y130556
X5080Y151384
X5080Y148844
X19558Y151384
X19558Y148844
X34036Y151384
X34036Y148844
X48514Y151384
X48514Y148844
X62992Y151384
X62992Y148844
X77470Y151384
X77470Y148844
X91948Y151384
T2
X27432Y33274
X24384Y27813
X19177Y26253
X15748Y26289
X24511Y22098
X22098Y26924
X16764Y25908
X22024Y32078
X17780Y30226
X39243Y19177
X38862Y23368
X38156Y35288
X38461Y32519
X38588Y29217
X36353Y30081
X41910Y33274
X38862Y27813
X33655Y26253
X30226Y26289
X38989Y22098
X36576Y26924
X31242Y25908
X36502Y32078
X32258Y30226
X53721Y19177
X53340Y23368
X52634Y35288
X52939Y32519
X53066Y29217
X50831Y30081
X56388Y33274
X53340Y27813
X48133Y26253
X44704Y26289
X53467Y22098
X51054Y26924
X45720Y25908
X50980Y32078
X46736Y30226
X68199Y19177
X67818Y23368
X67112Y35288
X67417Y32519
X67544Y29217
X65309Y30081
X70866Y33274
X67818Y27813
X62611Y26253
X59182Y26289
X67945Y22098
X65532Y26924
X60198Y25908
X65458Y32078
X61214Y30226
X82677Y19177
X82296Y23368
X81590Y35288
X81895Y32519
X82022Y29217
X79787Y30081
X85344Y33274
X82296Y27813
X77089Y26253
X73660Y26289
X82423Y22098
X80010Y26924
X74676Y25908
X79936Y32078
X75692Y30226
X97155Y19177
X96774Y23368
X96068Y35288
X96373Y32519
X96500Y29217
X94265Y30081
X99822Y33274
X96774Y27813
X91567Y26253
X88138Y26289
X96901Y22098
X94488Y26924
X89154Y25908
X94414Y32078
X90170Y30226
X10287Y37465
X9906Y41656
X9200Y53576
X9505Y50807
X9632Y47505
X7397Y48369
X12954Y51562
X9906Y46101
X4699Y44541
X1270Y44577
X10033Y40386
X7620Y45212
X2286Y44196
X7546Y50366
X3302Y48514
X24765Y37465
X24384Y41656
X23678Y53576
X23983Y50807
X24110Y47505
X21875Y48369
X27432Y51562
X24384Y46101
X19177Y44541
X15748Y44577
X24511Y40386
X22098Y45212
X16764Y44196
X22024Y50366
X17780Y48514
X39243Y37465
X38862Y41656
X38156Y53576
X38461Y50807
X38588Y47505
X36353Y48369
X41910Y51562
X38862Y46101
X33655Y44541
X30226Y44577
X38989Y40386
X36576Y45212
X31242Y44196
X36502Y50366
X32258Y48514
X53721Y37465
X53340Y41656
X52634Y53576
X52939Y50807
X53066Y47505
X50831Y48369
X56388Y51562
X53340Y46101
X48133Y44541
X44704Y44577
X53467Y40386
X51054Y45212
X45720Y44196
X50980Y50366
X46736Y48514
X68199Y37465
X67818Y41656
X67112Y53576
X67417Y50807
X67544Y47505
X65309Y48369
X70866Y51562
X67818Y46101
X62611Y44541
X59182Y44577
X67945Y40386
X65532Y45212
X60198Y44196
X65458Y50366
X61214Y48514
X82677Y37465
X82296Y41656
X81590Y53576
X81895Y50807
X82022Y47505
X79787Y48369
X85344Y51562
X82296Y46101
X77089Y44541
X73660Y44577
X82423Y40386
X80010Y45212
X74676Y44196
X79936Y50366
X75692Y48514
X97155Y37465
X96774Y41656
X96068Y53576
X96373Y50807
X96500Y47505
X94265Y48369
X99822Y51562
X96774Y46101
X91567Y44541
X88138Y44577
X96901Y40386
X94488Y45212
X89154Y44196
X94414Y50366
X90170Y48514
X10287Y55753
X9906Y59944
X9200Y71864
X9505Y69095
X9632Y65793
X7397Y66657
X12954Y69850
X9906Y64389
X4699Y62829
X1270Y62865
X10033Y58674
X7620Y63500
X2286Y62484
X7546Y68654
X3302Y66802
X24765Y55753
X24384Y59944
X23678Y71864
X23983Y69095
X24110Y65793
X21875Y66657
X27432Y69850
X24384Y64389
X19177Y62829
X15748Y62865
X24511Y58674
X22098Y63500
X16764Y62484
X22024Y68654
X17780Y66802
X39243Y55753
X38862Y59944
X38156Y71864
X38461Y69095
X38588Y65793
X36353Y66657
X41910Y69850
X38862Y64389
X33655Y62829
X30226Y62865
X38989Y58674
X36576Y63500
X31242Y62484
X36502Y68654
X32258Y66802
X53721Y55753
X53340Y59944
X52634Y71864
X52939Y69095
X53066Y65793
X50831Y66657
X56388Y69850
X53340Y64389
X48133Y62829
X44704Y62865
X53467Y58674
X51054Y63500
X45720Y62484
X50980Y68654
X46736Y66802
X68199Y55753
X67818Y59944
X67112Y71864
X67417Y69095
X67544Y65793
X65309Y66657
X70866Y69850
X67818Y64389
X62611Y62829
X59182Y62865
X67945Y58674
X65532Y63500
X60198Y62484
X65458Y68654
X61214Y66802
X82677Y55753
X82296Y59944
X81590Y71864
X81895Y69095
X82022Y65793
X79787Y66657
X85344Y69850
X82296Y64389
X77089Y62829
X73660Y62865
X82423Y58674
X80010Y63500
X74676Y62484
X79936Y68654
X75692Y66802
X97155Y55753
X96774Y59944
X96068Y71864
X96373Y69095
X96500Y65793
X94265Y66657
X99822Y69850
X96774Y64389
X91567Y62829
X88138Y62865
X96901Y58674
X94488Y63500
X89154Y62484
X94414Y68654
X90170Y66802
X10287Y74041
X9906Y78232
X9200Y90152
X9505Y87383
X9632Y84081
X7397Y84945
X12954Y88138
X9906Y82677
X4699Y81117
X1270Y81153
X10033Y76962
X7620Y81788
X2286Y80772
X7546Y86942
X3302Y85090
X24765Y74041
X24384Y78232
X23678Y90152
X23983Y87383
X24110Y84081
X21875Y84945
X27432Y88138
X24384Y82677
X19177Y81117
X15748Y81153
X24511Y76962
X22098Y81788
X16764Y80772
X22024Y86942
X17780Y85090
X39243Y74041
X38862Y78232
X38156Y90152
X38461Y87383
X38588Y84081
X36353Y84945
X41910Y88138
X38862Y82677
X33655Y81117
X30226Y81153
X38989Y76962
X36576Y81788
X31242Y80772
X36502Y86942
X32258Y85090
X53721Y74041
X53340Y78232
X52634Y90152
X52939Y87383
X53066Y84081
X50831Y84945
X56388Y88138
X53340Y82677
X48133Y81117
X44704Y81153
X53467Y76962
X51054Y81788
X45720Y80772
X50980Y86942
X46736Y85090
X68199Y74041
X67818Y78232
X67112Y90152
X67417Y87383
X67544Y84081
X65309Y84945
X70866Y88138
X67818Y82677
X62611Y81117
X59182Y81153
X67945Y76962
X65532Y81788
X60198Y80772
X65458Y86942
X61214Y85090
X82677Y74041
X82296Y78232
X81590Y90152
X81895Y87383
X82022Y84081
X79787Y84945
X85344Y88138
X82296Y82677
X77089Y81117
X73660Y81153
X82423Y76962
X80010Y81788
X74676Y80772
X79936Y86942
X75692Y85090
X97155Y74041
X96774Y78232
X96068Y90152
X96373Y87383
X96500Y84081
X94265Y84945
X99822Y88138
X96774Y82677
X91567Y81117
X88138Y81153
X96901Y76962
X94488Y81788
X89154Y80772
X94414Y86942
X90170Y85090
X10287Y92329
X9906Y96520
X9200Y108440
X9505Y105671
X9632Y102369
X7397Y103233
X12954Y106426
X9906Y100965
X4699Y99405
X1270Y99441
X10033Y95250
X7620Y100076
X2286Y99060
X7546Y105230
X3302Y103378
X24765Y92329
X24384Y96520
X23678Y108440
X23983Y105671
X24110Y102369
X21875Y103233
X27432Y106426
X24384Y100965
X19177Y99405
X15748Y99441
X24511Y95250
X22098Y100076
X16764Y99060
X22024Y105230
X17780Y103378
X39243Y92329
X38862Y96520
X38156Y108440
X38461Y105671
X38588Y102369
X36353Y103233
X41910Y106426
X38862Y100965
X33655Y99405
X30226Y99441
X38989Y95250
X36576Y100076
X31242Y99060
X36502Y105230
X32258Y103378
X53721Y92329
X53340Y96520
X52634Y108440
X52939Y105671
X53066Y102369
X50831Y103233
X56388Y106426
X53340Y100965
X48133Y99405
X44704Y99441
X53467Y95250
X51054Y100076
X45720Y99060
X50980Y105230
X46736Y103378
X68199Y92329
X67818Y96520
X67112Y108440
X67417Y105671
X67544Y102369
X65309Y103233
X70866Y106426
X67818Y100965
X62611Y99405
X59182Y99441
X67945Y95250
X65532Y100076
X60198Y99060
X65458Y105230
X61214Y103378
X82677Y92329
X82296Y96520
X81590Y108440
X81895Y105671
X82022Y102369
X79787Y103233
X85344Y106426
X82296Y100965
X77089Y99405
X73660Y99441
X82423Y95250
X80010Y100076
X74676Y99060
X79936Y105230
X75692Y103378
X97155Y92329
X96774Y96520
X96068Y108440
X96373Y105671
X96500Y102369
X94265Y103233
X99822Y106426
X96774Y100965
X91567Y99405
X88138Y99441
X96901Y95250
X94488Y100076
X89154Y99060
X94414Y105230
X90170Y103378
X10287Y110617
X9906Y114808
X9200Y126728
X9505Y123959
X9632Y120657
X7397Y121521
X12954Y124714
X9906Y119253
X4699Y117693
X1270Y117729
X10033Y113538
X7620Y118364
X2286Y117348
X7546Y123518
X3302Y121666
X24765Y110617
X24384Y114808
X23678Y126728
X23983Y123959
X24110Y120657
X21875Y121521
X27432Y124714
X24384Y119253
X19177Y117693
X15748Y117729
X24511Y113538
X22098Y118364
X16764Y117348
X22024Y123518
X17780Y121666
X39243Y110617
X38862Y114808
X38156Y126728
X38461Y123959
X38588Y120657
X36353Y121521
X41910Y124714
X38862Y119253
X33655Y117693
X30226Y117729
X38989Y113538
X36576Y118364
X31242Y117348
X36502Y123518
X32258Y121666
X53721Y110617
X53340Y114808
X52634Y126728
X52939Y123959
X53066Y120657
X50831Y121521
X56388Y124714
X53340Y119253
X48133Y117693
X44704Y117729
X53467Y113538
X51054Y118364
X45720Y117348
X50980Y123518
X46736Y121666
X68199Y110617
X67818Y114808
X67112Y126728
X67417Y123959
X67544Y120657
X65309Y121521
X70866Y124714
X67818Y119253
X62611Y117693
X59182Y117729
X67945Y113538
X65532Y118364
X60198Y117348
X65458Y123518
X61214Y121666
X82677Y110617
X82296Y114808
X81590Y126728
X81895Y123959
X82022Y120657
X79787Y121521
X85344Y124714
X82296Y119253
X77089Y117693
X73660Y117729
X82423Y113538
X80010Y118364
X74676Y117348
X79936Y123518
X75692Y121666
X97155Y110617
X96774Y114808
X96068Y126728
X96373Y123959
X96500Y120657
X94265Y121521
X99822Y124714
X96774Y119253
X91567Y117693
X88138Y117729
X96901Y113538
X94488Y118364
X89154Y117348
X94414Y123518
X90170Y121666
X10287Y128905
X9906Y133096
X9200Y145016
X9505Y142247
X9632Y138945
X7397Y139809
X12954Y143002
X9906Y137541
X4699Y135981
X1270Y136017
X10033Y131826
X7620Y136652
X2286Y135636
X7546Y141806
X3302Y139954
X24765Y128905
X24384Y133096
X23678Y145016
X23983Y142247
X24110Y138945
X21875Y139809
X27432Y143002
X24384Y137541
X19177Y135981
X15748Y136017
X24511Y131826
X22098Y136652
X16764Y135636
X22024Y141806
X17780Y139954
X39243Y128905
X38862Y133096
X38156Y145016
X38461Y142247
X38588Y138945
X36353Y139809
X41910Y143002
X38862Y137541
X33655Y135981
X30226Y136017
X38989Y131826
X36576Y136652
X31242Y135636
X36502Y141806
X32258Y139954
X53721Y128905
X53340Y133096
X52634Y145016
X52939Y142247
X53066Y138945
X50831Y139809
X56388Y143002
X53340Y137541
X48133Y135981
X44704Y136017
X53467Y131826
X51054Y136652
X45720Y135636
X50980Y141806
X46736Y139954
X68199Y128905
X67818Y133096
X67112Y145016
X67417Y142247
X67544Y138945
X65309Y139809
X70866Y143002
X67818Y137541
X62611Y135981
X10287Y889
X67945Y131826
X65532Y136652
X60198Y135636
X65458Y141806
X61214Y139954
X82677Y128905
X82296Y133096
X81590Y145016
X81895Y142247
X82022Y138945
X79787Y139809
X85344Y143002
X82296Y137541
X77089Y135981
X73660Y136017
X82423Y131826
X80010Y136652
X74676Y135636
X79936Y141806
X75692Y139954
X97155Y128905
X96774Y133096
X96068Y145016
X96373Y142247
X96500Y138945
X94265Y139809
X99822Y143002
X96774Y137541
X91567Y135981
X88138Y136017
X96901Y131826
X94488Y136652
X89154Y135636
X94414Y141806
X90170Y139954
X10287Y147193
X9906Y151384
X9200Y163304
X9505Y160535
X9632Y157233
X7397Y158097
X12954Y161290
X9906Y155829
X4699Y154269
X1270Y154305
X10033Y150114
X7620Y154940
X2286Y153924
X7546Y160094
X3302Y158242
X24765Y147193
X24384Y151384
X23678Y163304
X23983Y160535
X24110Y157233
X21875Y158097
X27432Y161290
X24384Y155829
X19177Y154269
X15748Y154305
X24511Y150114
X22098Y154940
X16764Y153924
X22024Y160094
X17780Y158242
X39243Y147193
X38862Y151384
X38156Y163304
X38461Y160535
X38588Y157233
X36353Y158097
X41910Y161290
X38862Y155829
X33655Y154269
X30226Y154305
X38989Y150114
X36576Y154940
X31242Y153924
X36502Y160094
X32258Y158242
X53721Y147193
X53340Y151384
X52634Y163304
X52939Y160535
X53066Y157233
X50831Y158097
X56388Y161290
X53340Y155829
X48133Y154269
X44704Y154305
X53467Y150114
X51054Y154940
X45720Y153924
X50980Y160094
X46736Y158242
X68199Y147193
X67818Y151384
X67112Y163304
X67417Y160535
X67544Y157233
X65309Y158097
X70866Y161290
X67818Y155829
X62611Y154269
X59182Y154305
X67945Y150114
X65532Y154940
X60198Y153924
X65458Y160094
X61214Y158242
X82677Y147193
X82296Y151384
X81590Y163304
X81895Y160535
X82022Y157233
X79787Y158097
X85344Y161290
X82296Y155829
X77089Y154269
X73660Y154305
X82423Y150114
X80010Y154940
X74676Y153924
X79936Y160094
X75692Y158242
X97155Y147193
X96774Y151384
X96068Y163304
X96373Y160535
X96500Y157233
X94265Y158097
X99822Y161290
X59182Y136017
X91567Y154269
X88138Y154305
X96901Y150114
X94488Y154940
X89154Y153924
X94414Y160094
X90170Y158242
X9906Y5080
X9200Y17000
X9505Y14231
X9632Y10929
X7397Y11793
X12954Y14986
X9906Y9525
X4699Y7965
X1270Y8001
X10033Y3810
X7620Y8636
X2286Y7620
X7546Y13790
X3302Y11938
X24765Y889
X24384Y5080
X23678Y17000
X23983Y14231
X24110Y10929
X21875Y11793
X27432Y14986
X24384Y9525
X19177Y7965
X15748Y8001
X24511Y3810
X22098Y8636
X16764Y7620
X22024Y13790
X17780Y11938
X39243Y889
X38862Y5080
X38156Y17000
X38461Y14231
X38588Y10929
X36353Y11793
X41910Y14986
X38862Y9525
X33655Y7965
X30226Y8001
X38989Y3810
X36576Y8636
X31242Y7620
X36502Y13790
X32258Y11938
X53721Y889
X53340Y5080
X52634Y17000
X52939Y14231
X53066Y10929
X50831Y11793
X56388Y14986
X53340Y9525
X48133Y7965
X44704Y8001
X53467Y3810
X51054Y8636
X45720Y7620
X50980Y13790
X46736Y11938
X68199Y889
X67818Y5080
X67112Y17000
X67417Y14231
X67544Y10929
X65309Y11793
X70866Y14986
X67818Y9525
X62611Y7965
X59182Y8001
X67945Y3810
X65532Y8636
X60198Y7620
X65458Y13790
X61214Y11938
X82677Y889
X82296Y5080
X81590Y17000
X81895Y14231
X82022Y10929
X79787Y11793
X85344Y14986
X82296Y9525
X77089Y7965
X73660Y8001
X82423Y3810
X80010Y8636
X74676Y7620
X79936Y13790
X75692Y11938
X97155Y889
X96774Y5080
X96068Y17000
X96373Y14231
X96500Y10929
X94265Y11793
X99822Y14986
X96774Y9525
X91567Y7965
X88138Y8001
X96901Y3810
X94488Y8636
X89154Y7620
X94414Y13790
X90170Y11938
X10287Y19177
X9906Y23368
X9200Y35288
X9505Y32519
X9632Y29217
X7397Y30081
X12954Y33274
X9906Y27813
X4699Y26253
X1270Y26289
X10033Y22098
X7620Y26924
X2286Y25908
X7546Y32078
X3302Y30226
X24765Y19177
X24384Y23368
X23678Y35288
X23983Y32519
X24110Y29217
X21875Y30081
X96774Y155829
M30