G04 EAGLE Gerber RS-274X export*
G75*
%MOMM*%
%FSLAX34Y34*%
%LPD*%
%INSoldermask Bottom*%
%IPPOS*%
%AMOC8*
5,1,8,0,0,1.08239X$1,22.5*%
G01*
%ADD10C,2.003200*%
%ADD11R,2.103200X1.223200*%
%ADD12C,1.203200*%
%ADD13C,1.270000*%
%ADD14C,1.703200*%


D10*
X50800Y50800D03*
X50800Y25400D03*
D11*
X22300Y38100D03*
X79300Y38100D03*
X79300Y12700D03*
X22300Y12700D03*
X22300Y63500D03*
X79300Y63500D03*
D10*
X195580Y50800D03*
X195580Y25400D03*
D11*
X167080Y38100D03*
X224080Y38100D03*
X224080Y12700D03*
X167080Y12700D03*
X167080Y63500D03*
X224080Y63500D03*
D10*
X340360Y50800D03*
X340360Y25400D03*
D11*
X311860Y38100D03*
X368860Y38100D03*
X368860Y12700D03*
X311860Y12700D03*
X311860Y63500D03*
X368860Y63500D03*
D10*
X485140Y50800D03*
X485140Y25400D03*
D11*
X456640Y38100D03*
X513640Y38100D03*
X513640Y12700D03*
X456640Y12700D03*
X456640Y63500D03*
X513640Y63500D03*
D10*
X629920Y50800D03*
X629920Y25400D03*
D11*
X601420Y38100D03*
X658420Y38100D03*
X658420Y12700D03*
X601420Y12700D03*
X601420Y63500D03*
X658420Y63500D03*
D10*
X774700Y50800D03*
X774700Y25400D03*
D11*
X746200Y38100D03*
X803200Y38100D03*
X803200Y12700D03*
X746200Y12700D03*
X746200Y63500D03*
X803200Y63500D03*
D10*
X919480Y50800D03*
X919480Y25400D03*
D11*
X890980Y38100D03*
X947980Y38100D03*
X947980Y12700D03*
X890980Y12700D03*
X890980Y63500D03*
X947980Y63500D03*
D10*
X50800Y233680D03*
X50800Y208280D03*
D11*
X22300Y220980D03*
X79300Y220980D03*
X79300Y195580D03*
X22300Y195580D03*
X22300Y246380D03*
X79300Y246380D03*
D10*
X195580Y233680D03*
X195580Y208280D03*
D11*
X167080Y220980D03*
X224080Y220980D03*
X224080Y195580D03*
X167080Y195580D03*
X167080Y246380D03*
X224080Y246380D03*
D10*
X340360Y233680D03*
X340360Y208280D03*
D11*
X311860Y220980D03*
X368860Y220980D03*
X368860Y195580D03*
X311860Y195580D03*
X311860Y246380D03*
X368860Y246380D03*
D10*
X485140Y233680D03*
X485140Y208280D03*
D11*
X456640Y220980D03*
X513640Y220980D03*
X513640Y195580D03*
X456640Y195580D03*
X456640Y246380D03*
X513640Y246380D03*
D10*
X629920Y233680D03*
X629920Y208280D03*
D11*
X601420Y220980D03*
X658420Y220980D03*
X658420Y195580D03*
X601420Y195580D03*
X601420Y246380D03*
X658420Y246380D03*
D10*
X774700Y233680D03*
X774700Y208280D03*
D11*
X746200Y220980D03*
X803200Y220980D03*
X803200Y195580D03*
X746200Y195580D03*
X746200Y246380D03*
X803200Y246380D03*
D10*
X919480Y233680D03*
X919480Y208280D03*
D11*
X890980Y220980D03*
X947980Y220980D03*
X947980Y195580D03*
X890980Y195580D03*
X890980Y246380D03*
X947980Y246380D03*
D10*
X50800Y416560D03*
X50800Y391160D03*
D11*
X22300Y403860D03*
X79300Y403860D03*
X79300Y378460D03*
X22300Y378460D03*
X22300Y429260D03*
X79300Y429260D03*
D10*
X195580Y416560D03*
X195580Y391160D03*
D11*
X167080Y403860D03*
X224080Y403860D03*
X224080Y378460D03*
X167080Y378460D03*
X167080Y429260D03*
X224080Y429260D03*
D10*
X340360Y416560D03*
X340360Y391160D03*
D11*
X311860Y403860D03*
X368860Y403860D03*
X368860Y378460D03*
X311860Y378460D03*
X311860Y429260D03*
X368860Y429260D03*
D10*
X485140Y416560D03*
X485140Y391160D03*
D11*
X456640Y403860D03*
X513640Y403860D03*
X513640Y378460D03*
X456640Y378460D03*
X456640Y429260D03*
X513640Y429260D03*
D10*
X629920Y416560D03*
X629920Y391160D03*
D11*
X601420Y403860D03*
X658420Y403860D03*
X658420Y378460D03*
X601420Y378460D03*
X601420Y429260D03*
X658420Y429260D03*
D10*
X774700Y416560D03*
X774700Y391160D03*
D11*
X746200Y403860D03*
X803200Y403860D03*
X803200Y378460D03*
X746200Y378460D03*
X746200Y429260D03*
X803200Y429260D03*
D10*
X919480Y416560D03*
X919480Y391160D03*
D11*
X890980Y403860D03*
X947980Y403860D03*
X947980Y378460D03*
X890980Y378460D03*
X890980Y429260D03*
X947980Y429260D03*
D10*
X50800Y599440D03*
X50800Y574040D03*
D11*
X22300Y586740D03*
X79300Y586740D03*
X79300Y561340D03*
X22300Y561340D03*
X22300Y612140D03*
X79300Y612140D03*
D10*
X195580Y599440D03*
X195580Y574040D03*
D11*
X167080Y586740D03*
X224080Y586740D03*
X224080Y561340D03*
X167080Y561340D03*
X167080Y612140D03*
X224080Y612140D03*
D10*
X340360Y599440D03*
X340360Y574040D03*
D11*
X311860Y586740D03*
X368860Y586740D03*
X368860Y561340D03*
X311860Y561340D03*
X311860Y612140D03*
X368860Y612140D03*
D10*
X485140Y599440D03*
X485140Y574040D03*
D11*
X456640Y586740D03*
X513640Y586740D03*
X513640Y561340D03*
X456640Y561340D03*
X456640Y612140D03*
X513640Y612140D03*
D10*
X629920Y599440D03*
X629920Y574040D03*
D11*
X601420Y586740D03*
X658420Y586740D03*
X658420Y561340D03*
X601420Y561340D03*
X601420Y612140D03*
X658420Y612140D03*
D10*
X774700Y599440D03*
X774700Y574040D03*
D11*
X746200Y586740D03*
X803200Y586740D03*
X803200Y561340D03*
X746200Y561340D03*
X746200Y612140D03*
X803200Y612140D03*
D10*
X919480Y599440D03*
X919480Y574040D03*
D11*
X890980Y586740D03*
X947980Y586740D03*
X947980Y561340D03*
X890980Y561340D03*
X890980Y612140D03*
X947980Y612140D03*
D10*
X50800Y782320D03*
X50800Y756920D03*
D11*
X22300Y769620D03*
X79300Y769620D03*
X79300Y744220D03*
X22300Y744220D03*
X22300Y795020D03*
X79300Y795020D03*
D10*
X195580Y782320D03*
X195580Y756920D03*
D11*
X167080Y769620D03*
X224080Y769620D03*
X224080Y744220D03*
X167080Y744220D03*
X167080Y795020D03*
X224080Y795020D03*
D10*
X340360Y782320D03*
X340360Y756920D03*
D11*
X311860Y769620D03*
X368860Y769620D03*
X368860Y744220D03*
X311860Y744220D03*
X311860Y795020D03*
X368860Y795020D03*
D10*
X485140Y782320D03*
X485140Y756920D03*
D11*
X456640Y769620D03*
X513640Y769620D03*
X513640Y744220D03*
X456640Y744220D03*
X456640Y795020D03*
X513640Y795020D03*
D10*
X629920Y782320D03*
X629920Y756920D03*
D11*
X601420Y769620D03*
X658420Y769620D03*
X658420Y744220D03*
X601420Y744220D03*
X601420Y795020D03*
X658420Y795020D03*
D10*
X774700Y782320D03*
X774700Y756920D03*
D11*
X746200Y769620D03*
X803200Y769620D03*
X803200Y744220D03*
X746200Y744220D03*
X746200Y795020D03*
X803200Y795020D03*
D10*
X919480Y782320D03*
X919480Y756920D03*
D11*
X890980Y769620D03*
X947980Y769620D03*
X947980Y744220D03*
X890980Y744220D03*
X890980Y795020D03*
X947980Y795020D03*
D10*
X50800Y965200D03*
X50800Y939800D03*
D11*
X22300Y952500D03*
X79300Y952500D03*
X79300Y927100D03*
X22300Y927100D03*
X22300Y977900D03*
X79300Y977900D03*
D10*
X195580Y965200D03*
X195580Y939800D03*
D11*
X167080Y952500D03*
X224080Y952500D03*
X224080Y927100D03*
X167080Y927100D03*
X167080Y977900D03*
X224080Y977900D03*
D10*
X340360Y965200D03*
X340360Y939800D03*
D11*
X311860Y952500D03*
X368860Y952500D03*
X368860Y927100D03*
X311860Y927100D03*
X311860Y977900D03*
X368860Y977900D03*
D10*
X485140Y965200D03*
X485140Y939800D03*
D11*
X456640Y952500D03*
X513640Y952500D03*
X513640Y927100D03*
X456640Y927100D03*
X456640Y977900D03*
X513640Y977900D03*
D10*
X629920Y965200D03*
X629920Y939800D03*
D11*
X601420Y952500D03*
X658420Y952500D03*
X658420Y927100D03*
X601420Y927100D03*
X601420Y977900D03*
X658420Y977900D03*
D10*
X774700Y965200D03*
X774700Y939800D03*
D11*
X746200Y952500D03*
X803200Y952500D03*
X803200Y927100D03*
X746200Y927100D03*
X746200Y977900D03*
X803200Y977900D03*
D10*
X919480Y965200D03*
X919480Y939800D03*
D11*
X890980Y952500D03*
X947980Y952500D03*
X947980Y927100D03*
X890980Y927100D03*
X890980Y977900D03*
X947980Y977900D03*
D10*
X50800Y1148080D03*
X50800Y1122680D03*
D11*
X22300Y1135380D03*
X79300Y1135380D03*
X79300Y1109980D03*
X22300Y1109980D03*
X22300Y1160780D03*
X79300Y1160780D03*
D10*
X195580Y1148080D03*
X195580Y1122680D03*
D11*
X167080Y1135380D03*
X224080Y1135380D03*
X224080Y1109980D03*
X167080Y1109980D03*
X167080Y1160780D03*
X224080Y1160780D03*
D10*
X340360Y1148080D03*
X340360Y1122680D03*
D11*
X311860Y1135380D03*
X368860Y1135380D03*
X368860Y1109980D03*
X311860Y1109980D03*
X311860Y1160780D03*
X368860Y1160780D03*
D10*
X485140Y1148080D03*
X485140Y1122680D03*
D11*
X456640Y1135380D03*
X513640Y1135380D03*
X513640Y1109980D03*
X456640Y1109980D03*
X456640Y1160780D03*
X513640Y1160780D03*
D10*
X629920Y1148080D03*
X629920Y1122680D03*
D11*
X601420Y1135380D03*
X658420Y1135380D03*
X658420Y1109980D03*
X601420Y1109980D03*
X601420Y1160780D03*
X658420Y1160780D03*
D10*
X774700Y1148080D03*
X774700Y1122680D03*
D11*
X746200Y1135380D03*
X803200Y1135380D03*
X803200Y1109980D03*
X746200Y1109980D03*
X746200Y1160780D03*
X803200Y1160780D03*
D10*
X919480Y1148080D03*
X919480Y1122680D03*
D11*
X890980Y1135380D03*
X947980Y1135380D03*
X947980Y1109980D03*
X890980Y1109980D03*
X890980Y1160780D03*
X947980Y1160780D03*
D10*
X50800Y1330960D03*
X50800Y1305560D03*
D11*
X22300Y1318260D03*
X79300Y1318260D03*
X79300Y1292860D03*
X22300Y1292860D03*
X22300Y1343660D03*
X79300Y1343660D03*
D10*
X195580Y1330960D03*
X195580Y1305560D03*
D11*
X167080Y1318260D03*
X224080Y1318260D03*
X224080Y1292860D03*
X167080Y1292860D03*
X167080Y1343660D03*
X224080Y1343660D03*
D10*
X340360Y1330960D03*
X340360Y1305560D03*
D11*
X311860Y1318260D03*
X368860Y1318260D03*
X368860Y1292860D03*
X311860Y1292860D03*
X311860Y1343660D03*
X368860Y1343660D03*
D10*
X485140Y1330960D03*
X485140Y1305560D03*
D11*
X456640Y1318260D03*
X513640Y1318260D03*
X513640Y1292860D03*
X456640Y1292860D03*
X456640Y1343660D03*
X513640Y1343660D03*
D10*
X629920Y1330960D03*
X629920Y1305560D03*
D11*
X601420Y1318260D03*
X658420Y1318260D03*
X658420Y1292860D03*
X601420Y1292860D03*
X601420Y1343660D03*
X658420Y1343660D03*
D10*
X774700Y1330960D03*
X774700Y1305560D03*
D11*
X746200Y1318260D03*
X803200Y1318260D03*
X803200Y1292860D03*
X746200Y1292860D03*
X746200Y1343660D03*
X803200Y1343660D03*
D10*
X919480Y1330960D03*
X919480Y1305560D03*
D11*
X890980Y1318260D03*
X947980Y1318260D03*
X947980Y1292860D03*
X890980Y1292860D03*
X890980Y1343660D03*
X947980Y1343660D03*
D10*
X50800Y1513840D03*
X50800Y1488440D03*
D11*
X22300Y1501140D03*
X79300Y1501140D03*
X79300Y1475740D03*
X22300Y1475740D03*
X22300Y1526540D03*
X79300Y1526540D03*
D10*
X195580Y1513840D03*
X195580Y1488440D03*
D11*
X167080Y1501140D03*
X224080Y1501140D03*
X224080Y1475740D03*
X167080Y1475740D03*
X167080Y1526540D03*
X224080Y1526540D03*
D10*
X340360Y1513840D03*
X340360Y1488440D03*
D11*
X311860Y1501140D03*
X368860Y1501140D03*
X368860Y1475740D03*
X311860Y1475740D03*
X311860Y1526540D03*
X368860Y1526540D03*
D10*
X485140Y1513840D03*
X485140Y1488440D03*
D11*
X456640Y1501140D03*
X513640Y1501140D03*
X513640Y1475740D03*
X456640Y1475740D03*
X456640Y1526540D03*
X513640Y1526540D03*
D10*
X629920Y1513840D03*
X629920Y1488440D03*
D11*
X601420Y1501140D03*
X658420Y1501140D03*
X658420Y1475740D03*
X601420Y1475740D03*
X601420Y1526540D03*
X658420Y1526540D03*
D10*
X774700Y1513840D03*
X774700Y1488440D03*
D11*
X746200Y1501140D03*
X803200Y1501140D03*
X803200Y1475740D03*
X746200Y1475740D03*
X746200Y1526540D03*
X803200Y1526540D03*
D10*
X919480Y1513840D03*
X919480Y1488440D03*
D11*
X890980Y1501140D03*
X947980Y1501140D03*
X947980Y1475740D03*
X890980Y1475740D03*
X890980Y1526540D03*
X947980Y1526540D03*
D12*
X68580Y1661795D03*
X939165Y1661795D03*
D13*
X59525Y-20955D02*
X59528Y-20733D01*
X59536Y-20511D01*
X59550Y-20289D01*
X59569Y-20067D01*
X59593Y-19847D01*
X59623Y-19626D01*
X59658Y-19407D01*
X59699Y-19188D01*
X59745Y-18971D01*
X59796Y-18755D01*
X59853Y-18540D01*
X59915Y-18326D01*
X59982Y-18115D01*
X60054Y-17904D01*
X60132Y-17696D01*
X60214Y-17490D01*
X60302Y-17286D01*
X60394Y-17083D01*
X60492Y-16884D01*
X60594Y-16687D01*
X60701Y-16492D01*
X60813Y-16300D01*
X60930Y-16111D01*
X61051Y-15924D01*
X61177Y-15741D01*
X61307Y-15561D01*
X61442Y-15384D01*
X61580Y-15211D01*
X61723Y-15041D01*
X61871Y-14874D01*
X62022Y-14711D01*
X62177Y-14552D01*
X62336Y-14397D01*
X62499Y-14246D01*
X62666Y-14098D01*
X62836Y-13955D01*
X63009Y-13817D01*
X63186Y-13682D01*
X63366Y-13552D01*
X63549Y-13426D01*
X63736Y-13305D01*
X63925Y-13188D01*
X64117Y-13076D01*
X64312Y-12969D01*
X64509Y-12867D01*
X64708Y-12769D01*
X64911Y-12677D01*
X65115Y-12589D01*
X65321Y-12507D01*
X65529Y-12429D01*
X65740Y-12357D01*
X65951Y-12290D01*
X66165Y-12228D01*
X66380Y-12171D01*
X66596Y-12120D01*
X66813Y-12074D01*
X67032Y-12033D01*
X67251Y-11998D01*
X67472Y-11968D01*
X67692Y-11944D01*
X67914Y-11925D01*
X68136Y-11911D01*
X68358Y-11903D01*
X68580Y-11900D01*
X68802Y-11903D01*
X69024Y-11911D01*
X69246Y-11925D01*
X69468Y-11944D01*
X69688Y-11968D01*
X69909Y-11998D01*
X70128Y-12033D01*
X70347Y-12074D01*
X70564Y-12120D01*
X70780Y-12171D01*
X70995Y-12228D01*
X71209Y-12290D01*
X71420Y-12357D01*
X71631Y-12429D01*
X71839Y-12507D01*
X72045Y-12589D01*
X72249Y-12677D01*
X72452Y-12769D01*
X72651Y-12867D01*
X72848Y-12969D01*
X73043Y-13076D01*
X73235Y-13188D01*
X73424Y-13305D01*
X73611Y-13426D01*
X73794Y-13552D01*
X73974Y-13682D01*
X74151Y-13817D01*
X74324Y-13955D01*
X74494Y-14098D01*
X74661Y-14246D01*
X74824Y-14397D01*
X74983Y-14552D01*
X75138Y-14711D01*
X75289Y-14874D01*
X75437Y-15041D01*
X75580Y-15211D01*
X75718Y-15384D01*
X75853Y-15561D01*
X75983Y-15741D01*
X76109Y-15924D01*
X76230Y-16111D01*
X76347Y-16300D01*
X76459Y-16492D01*
X76566Y-16687D01*
X76668Y-16884D01*
X76766Y-17083D01*
X76858Y-17286D01*
X76946Y-17490D01*
X77028Y-17696D01*
X77106Y-17904D01*
X77178Y-18115D01*
X77245Y-18326D01*
X77307Y-18540D01*
X77364Y-18755D01*
X77415Y-18971D01*
X77461Y-19188D01*
X77502Y-19407D01*
X77537Y-19626D01*
X77567Y-19847D01*
X77591Y-20067D01*
X77610Y-20289D01*
X77624Y-20511D01*
X77632Y-20733D01*
X77635Y-20955D01*
X77632Y-21177D01*
X77624Y-21399D01*
X77610Y-21621D01*
X77591Y-21843D01*
X77567Y-22063D01*
X77537Y-22284D01*
X77502Y-22503D01*
X77461Y-22722D01*
X77415Y-22939D01*
X77364Y-23155D01*
X77307Y-23370D01*
X77245Y-23584D01*
X77178Y-23795D01*
X77106Y-24006D01*
X77028Y-24214D01*
X76946Y-24420D01*
X76858Y-24624D01*
X76766Y-24827D01*
X76668Y-25026D01*
X76566Y-25223D01*
X76459Y-25418D01*
X76347Y-25610D01*
X76230Y-25799D01*
X76109Y-25986D01*
X75983Y-26169D01*
X75853Y-26349D01*
X75718Y-26526D01*
X75580Y-26699D01*
X75437Y-26869D01*
X75289Y-27036D01*
X75138Y-27199D01*
X74983Y-27358D01*
X74824Y-27513D01*
X74661Y-27664D01*
X74494Y-27812D01*
X74324Y-27955D01*
X74151Y-28093D01*
X73974Y-28228D01*
X73794Y-28358D01*
X73611Y-28484D01*
X73424Y-28605D01*
X73235Y-28722D01*
X73043Y-28834D01*
X72848Y-28941D01*
X72651Y-29043D01*
X72452Y-29141D01*
X72249Y-29233D01*
X72045Y-29321D01*
X71839Y-29403D01*
X71631Y-29481D01*
X71420Y-29553D01*
X71209Y-29620D01*
X70995Y-29682D01*
X70780Y-29739D01*
X70564Y-29790D01*
X70347Y-29836D01*
X70128Y-29877D01*
X69909Y-29912D01*
X69688Y-29942D01*
X69468Y-29966D01*
X69246Y-29985D01*
X69024Y-29999D01*
X68802Y-30007D01*
X68580Y-30010D01*
X68358Y-30007D01*
X68136Y-29999D01*
X67914Y-29985D01*
X67692Y-29966D01*
X67472Y-29942D01*
X67251Y-29912D01*
X67032Y-29877D01*
X66813Y-29836D01*
X66596Y-29790D01*
X66380Y-29739D01*
X66165Y-29682D01*
X65951Y-29620D01*
X65740Y-29553D01*
X65529Y-29481D01*
X65321Y-29403D01*
X65115Y-29321D01*
X64911Y-29233D01*
X64708Y-29141D01*
X64509Y-29043D01*
X64312Y-28941D01*
X64117Y-28834D01*
X63925Y-28722D01*
X63736Y-28605D01*
X63549Y-28484D01*
X63366Y-28358D01*
X63186Y-28228D01*
X63009Y-28093D01*
X62836Y-27955D01*
X62666Y-27812D01*
X62499Y-27664D01*
X62336Y-27513D01*
X62177Y-27358D01*
X62022Y-27199D01*
X61871Y-27036D01*
X61723Y-26869D01*
X61580Y-26699D01*
X61442Y-26526D01*
X61307Y-26349D01*
X61177Y-26169D01*
X61051Y-25986D01*
X60930Y-25799D01*
X60813Y-25610D01*
X60701Y-25418D01*
X60594Y-25223D01*
X60492Y-25026D01*
X60394Y-24827D01*
X60302Y-24624D01*
X60214Y-24420D01*
X60132Y-24214D01*
X60054Y-24006D01*
X59982Y-23795D01*
X59915Y-23584D01*
X59853Y-23370D01*
X59796Y-23155D01*
X59745Y-22939D01*
X59699Y-22722D01*
X59658Y-22503D01*
X59623Y-22284D01*
X59593Y-22063D01*
X59569Y-21843D01*
X59550Y-21621D01*
X59536Y-21399D01*
X59528Y-21177D01*
X59525Y-20955D01*
D14*
X68580Y-20955D03*
M02*
